<svg width="64" height="64" viewBox="0 0 64 64" fill="none" xmlns="http://www.w3.org/2000/svg">
<g clip-path="url(#clip0_112_506)">
<path d="M56.4349 33.6094C54.8021 31.065 52.5016 29.029 49.7822 27.7218C49.1598 27.4225 48.413 27.6846 48.114 28.3068C47.8148 28.929 48.0767 29.6758 48.699 29.9749C53.4378 32.2529 56.4997 37.1203 56.4997 42.375C56.4997 44.6235 55.9454 46.8534 54.8971 48.8239C54.5728 49.4333 54.8039 50.1903 55.4134 50.5145C55.6004 50.614 55.8014 50.6613 55.9994 50.6613C56.4467 50.6613 56.8793 50.4205 57.1041 49.9981C58.3442 47.6676 58.9997 45.0315 58.9997 42.375C58.9997 39.255 58.1128 36.2239 56.4349 33.6094Z" fill="#424242"/>
<path d="M36.8006 54.7752C32.0619 52.4971 29 47.6297 29 42.3751C29 40.1266 29.5542 37.8967 30.6026 35.9262C30.9269 35.3168 30.6957 34.5598 30.0862 34.2356C29.477 33.9113 28.7197 34.1425 28.3956 34.752C27.1555 37.0826 26.5 39.7186 26.5 42.3751C26.5 45.4951 27.3869 48.5261 29.0647 51.1407C30.6976 53.6851 32.9981 55.721 35.7175 57.0284C35.8921 57.1124 36.0766 57.152 36.2582 57.152C36.7237 57.152 37.1705 56.8909 37.3857 56.4434C37.6846 55.8212 37.4229 55.0743 36.8006 54.7752Z" fill="#424242"/>
<path d="M48.426 21.896C48.2739 21.5335 48.0875 21.1918 47.8707 20.875H51.1249C54.2954 20.875 56.8749 18.2955 56.8749 15.125C56.8749 11.9545 54.2954 9.37498 51.1249 9.37498H41.1149C41.7513 8.44973 42.1249 7.33036 42.1249 6.12499C42.1249 2.9545 39.5454 0.375 36.3749 0.375H5.74999C2.57949 0.375 0 2.9545 0 6.12499C0 9.29548 2.57949 11.875 5.74999 11.875H15.76C15.1236 12.8002 14.75 13.9196 14.75 15.125C14.75 16.3303 15.1235 17.4497 15.76 18.375H12.5C9.32948 18.375 6.74999 20.9545 6.74999 24.125C6.74999 25.9458 7.60174 27.5707 8.92686 28.6249C7.60174 29.6792 6.74999 31.3041 6.74999 33.1249C6.74999 34.9458 7.60174 36.5707 8.92686 37.6249C7.60174 38.6792 6.74999 40.3041 6.74999 42.1249C6.74999 43.9458 7.60174 45.5707 8.92686 46.6249C7.60174 47.6792 6.74999 49.304 6.74999 51.1249C6.74999 54.2954 9.32948 56.8749 12.5 56.8749H27.2312C31.1119 61.0258 36.6327 63.625 42.75 63.625C54.4673 63.625 64 54.0923 64 42.375C64 32.6229 57.3963 24.3853 48.426 21.896ZM51.1249 11.875C52.917 11.875 54.3749 13.333 54.3749 15.125C54.3749 16.917 52.917 18.375 51.1249 18.375H43.1249H20.5C18.7078 18.375 17.25 16.917 17.25 15.125C17.25 13.333 18.7078 11.875 20.5 11.875H51.1249ZM5.74999 9.37498C3.95787 9.37498 2.5 7.91699 2.5 6.12499C2.5 4.33299 3.95787 2.875 5.74999 2.875H36.3749C38.1671 2.875 39.6249 4.33299 39.6249 6.12499C39.6249 7.91699 38.1671 9.37498 36.3749 9.37498H5.74999ZM12.5 20.875H43.1249C43.6284 20.875 44.1105 20.992 44.543 21.2015C43.9518 21.1518 43.354 21.1251 42.75 21.1251C36.8819 21.1251 31.5619 23.5162 27.7127 27.375H12.5C10.708 27.375 9.24998 25.917 9.24998 24.125C9.24998 22.333 10.708 20.875 12.5 20.875ZM12.5 29.8749H25.5768C24.1578 31.8191 23.0607 34.0118 22.364 36.3749H12.5C10.7079 36.3749 9.24998 34.9171 9.24998 33.1249C9.24998 31.3329 10.7079 29.8749 12.5 29.8749ZM12.5 38.8749H21.79C21.6003 40.0141 21.5001 41.1829 21.5001 42.375C21.5001 43.3933 21.5737 44.3945 21.7128 45.3749H12.5C10.7079 45.3749 9.24998 43.917 9.24998 42.1249C9.24998 40.3328 10.7079 38.8749 12.5 38.8749ZM12.5 54.3749C10.7079 54.3749 9.24998 52.917 9.24998 51.1249C9.24998 49.3328 10.7079 47.8749 12.5 47.8749H22.2232C22.854 50.2265 23.8786 52.4182 25.2223 54.3749H12.5ZM42.75 61.125C32.4113 61.125 24.0001 52.7138 24.0001 42.375C24.0001 32.0363 32.4113 23.6251 42.75 23.6251C53.0888 23.6251 61.5 32.0363 61.5 42.375C61.5 52.7138 53.0888 61.125 42.75 61.125Z" fill="#424242"/>
</g>
<defs>
<clipPath id="clip0_112_506">
<rect width="64" height="64" fill="white"/>
</clipPath>
</defs>
</svg>
