<svg width="83" height="83" viewBox="0 0 83 83" fill="none" xmlns="http://www.w3.org/2000/svg">
<path d="M16.8594 60.9531C16.0899 60.9531 15.3377 61.1813 14.6979 61.6088C14.0581 62.0363 13.5594 62.644 13.2649 63.3549C12.9704 64.0658 12.8934 64.8481 13.0435 65.6028C13.1936 66.3575 13.5642 67.0507 14.1083 67.5948C14.6524 68.1389 15.3456 68.5095 16.1004 68.6596C16.8551 68.8097 17.6373 68.7327 18.3483 68.4382C19.0592 68.1437 19.6668 67.6451 20.0943 67.0053C20.5218 66.3655 20.75 65.6132 20.75 64.8438C20.7488 63.8122 20.3386 62.8233 19.6092 62.0939C18.8798 61.3646 17.8909 60.9543 16.8594 60.9531ZM16.8594 66.1406C16.6029 66.1406 16.3521 66.0646 16.1389 65.9221C15.9256 65.7796 15.7594 65.577 15.6612 65.34C15.5631 65.1031 15.5374 64.8423 15.5874 64.5907C15.6375 64.3392 15.761 64.1081 15.9423 63.9267C16.1237 63.7453 16.3548 63.6218 16.6064 63.5718C16.8579 63.5218 17.1187 63.5474 17.3557 63.6456C17.5926 63.7438 17.7952 63.91 17.9377 64.1232C18.0802 64.3365 18.1563 64.5873 18.1563 64.8438C18.1559 65.1876 18.0191 65.5172 17.776 65.7604C17.5329 66.0035 17.2032 66.1402 16.8594 66.1406Z" fill="#424242"/>
<path d="M66.1406 60.9531C65.3711 60.9531 64.6189 61.1813 63.9791 61.6088C63.3393 62.0363 62.8406 62.644 62.5462 63.3549C62.2517 64.0658 62.1746 64.8481 62.3248 65.6028C62.4749 66.3575 62.8454 67.0507 63.3895 67.5948C63.9337 68.1389 64.6269 68.5095 65.3816 68.6596C66.1363 68.8097 66.9186 68.7327 67.6295 68.4382C68.3404 68.1437 68.9481 67.6451 69.3756 67.0053C69.8031 66.3655 70.0313 65.6132 70.0313 64.8438C70.0301 63.8122 69.6198 62.8233 68.8904 62.0939C68.1611 61.3646 67.1721 60.9543 66.1406 60.9531ZM66.1406 66.1406C65.8841 66.1406 65.6334 66.0646 65.4201 65.9221C65.2069 65.7796 65.0406 65.577 64.9425 65.34C64.8443 65.1031 64.8186 64.8423 64.8687 64.5907C64.9187 64.3392 65.0422 64.1081 65.2236 63.9267C65.405 63.7453 65.636 63.6218 65.8876 63.5718C66.1392 63.5218 66.3999 63.5474 66.6369 63.6456C66.8739 63.7438 67.0764 63.91 67.2189 64.1232C67.3614 64.3365 67.4375 64.5873 67.4375 64.8438C67.4371 65.1876 67.3004 65.5172 67.0572 65.7604C66.8141 66.0035 66.4845 66.1402 66.1406 66.1406Z" fill="#424242"/>
<path d="M81.4972 43.3918L69.8254 25.2356C69.7079 25.053 69.5464 24.9029 69.3558 24.7989C69.1652 24.695 68.9515 24.6405 68.7344 24.6406H53.1719V17.5078C53.1705 16.3044 52.6919 15.1506 51.8409 14.2997C50.99 13.4487 49.8362 12.9701 48.6328 12.9688H5.83594C4.63251 12.9701 3.47876 13.4487 2.6278 14.2997C1.77685 15.1506 1.29821 16.3044 1.29688 17.5078V64.8438C1.29688 65.1877 1.43351 65.5176 1.67672 65.7608C1.91993 66.004 2.2498 66.1406 2.59375 66.1406H7.87527C8.18702 68.3011 9.26683 70.2768 10.9169 71.7058C12.5669 73.1348 14.6766 73.9214 16.8594 73.9214C19.0422 73.9214 21.1519 73.1348 22.8019 71.7058C24.4519 70.2768 25.5317 68.3011 25.8435 66.1406H57.1565C57.4683 68.3011 58.5481 70.2768 60.1981 71.7058C61.8481 73.1348 63.9578 73.9214 66.1406 73.9214C68.3234 73.9214 70.4331 73.1348 72.0832 71.7058C73.7332 70.2768 74.813 68.3011 75.1247 66.1406H80.4062C80.7502 66.1406 81.0801 66.004 81.3233 65.7608C81.5665 65.5176 81.7031 65.1877 81.7031 64.8438V44.0938C81.7031 43.8449 81.6317 43.6013 81.4972 43.3918ZM16.8594 71.3281C15.5769 71.3281 14.3232 70.9478 13.2568 70.2353C12.1905 69.5228 11.3594 68.5101 10.8686 67.3252C10.3778 66.1404 10.2494 64.8366 10.4996 63.5787C10.7498 62.3209 11.3674 61.1655 12.2742 60.2586C13.1811 59.3517 14.3365 58.7342 15.5943 58.484C16.8522 58.2338 18.156 58.3622 19.3408 58.853C20.5257 59.3438 21.5384 60.1749 22.2509 61.2412C22.9634 62.3076 23.3438 63.5613 23.3438 64.8438C23.342 66.563 22.6583 68.2113 21.4426 69.427C20.2269 70.6427 18.5786 71.3264 16.8594 71.3281ZM50.5781 63.5469H25.8435C25.5317 61.3864 24.4519 59.4107 22.8019 57.9817C21.1519 56.5527 19.0422 55.7661 16.8594 55.7661C14.6766 55.7661 12.5669 56.5527 10.9169 57.9817C9.26683 59.4107 8.18702 61.3864 7.87527 63.5469H3.89062V50.5781H50.5781V63.5469ZM50.5781 47.9844H3.89062V17.5078C3.89105 16.992 4.09614 16.4975 4.46087 16.1327C4.82559 15.768 5.32014 15.5629 5.83594 15.5625H48.6328C49.1486 15.5629 49.6432 15.768 50.0079 16.1327C50.3726 16.4975 50.5777 16.992 50.5781 17.5078V47.9844ZM70.5273 31.125L78.0313 42.7969H59.6562V31.125H70.5273ZM66.1406 71.3281C64.8581 71.3281 63.6045 70.9478 62.5381 70.2353C61.4717 69.5228 60.6406 68.5101 60.1498 67.3252C59.6591 66.1404 59.5306 64.8366 59.7808 63.5787C60.031 62.3209 60.6486 61.1655 61.5555 60.2586C62.4623 59.3517 63.6177 58.7342 64.8756 58.484C66.1334 58.2338 67.4372 58.3622 68.6221 58.853C69.807 59.3438 70.8197 60.1749 71.5322 61.2412C72.2447 62.3076 72.625 63.5613 72.625 64.8438C72.6233 66.563 71.9396 68.2113 70.7239 69.427C69.5082 70.6427 67.8599 71.3264 66.1406 71.3281ZM79.1094 53.1719H76.5156C76.1717 53.1719 75.8418 53.0352 75.5986 52.792C75.3554 52.5488 75.2188 52.219 75.2188 51.875C75.2188 51.531 75.3554 51.2012 75.5986 50.958C75.8418 50.7148 76.1717 50.5781 76.5156 50.5781H79.1094V53.1719ZM79.1094 47.9844H76.5156C75.4838 47.9844 74.4942 48.3943 73.7645 49.1239C73.0349 49.8535 72.625 50.8431 72.625 51.875C72.625 52.9069 73.0349 53.8965 73.7645 54.6261C74.4942 55.3557 75.4838 55.7656 76.5156 55.7656H79.1094V63.5469H75.1247C74.813 61.3864 73.7332 59.4107 72.0832 57.9817C70.4331 56.5527 68.3234 55.7661 66.1406 55.7661C63.9578 55.7661 61.8481 56.5527 60.1981 57.9817C58.5481 59.4107 57.4683 61.3864 57.1565 63.5469H53.1719V27.2344H68.026L68.8608 28.5312H58.3594C58.0154 28.5312 57.6856 28.6679 57.4423 28.9111C57.1991 29.1543 57.0625 29.4842 57.0625 29.8281V44.0938C57.0625 44.4377 57.1991 44.7676 57.4423 45.0108C57.6856 45.254 58.0154 45.3906 58.3594 45.3906H79.1094V47.9844Z" fill="#424242"/>
<path d="M62.25 47.9844H58.3594C58.0154 47.9844 57.6856 48.121 57.4423 48.3642C57.1991 48.6074 57.0625 48.9373 57.0625 49.2812C57.0625 49.6252 57.1991 49.9551 57.4423 50.1983C57.6856 50.4415 58.0154 50.5781 58.3594 50.5781H62.25C62.594 50.5781 62.9238 50.4415 63.167 50.1983C63.4102 49.9551 63.5469 49.6252 63.5469 49.2812C63.5469 48.9373 63.4102 48.6074 63.167 48.3642C62.9238 48.121 62.594 47.9844 62.25 47.9844Z" fill="#424242"/>
<path d="M35.0156 55.7656H45.3906C45.7346 55.7656 46.0644 55.629 46.3077 55.3858C46.5509 55.1426 46.6875 54.8127 46.6875 54.4688C46.6875 54.1248 46.5509 53.7949 46.3077 53.5517C46.0644 53.3085 45.7346 53.1719 45.3906 53.1719H35.0156C34.6717 53.1719 34.3418 53.3085 34.0986 53.5517C33.8554 53.7949 33.7188 54.1248 33.7188 54.4688C33.7188 54.8127 33.8554 55.1426 34.0986 55.3858C34.3418 55.629 34.6717 55.7656 35.0156 55.7656Z" fill="#424242"/>
<path d="M45.3906 57.0625H41.5C41.156 57.0625 40.8262 57.1991 40.583 57.4423C40.3398 57.6856 40.2031 58.0154 40.2031 58.3594C40.2031 58.7033 40.3398 59.0332 40.583 59.2764C40.8262 59.5196 41.156 59.6562 41.5 59.6562H45.3906C45.7346 59.6562 46.0644 59.5196 46.3077 59.2764C46.5509 59.0332 46.6875 58.7033 46.6875 58.3594C46.6875 58.0154 46.5509 57.6856 46.3077 57.4423C46.0644 57.1991 45.7346 57.0625 45.3906 57.0625Z" fill="#424242"/>
</svg>
